<svg width="272" height="228" viewBox="0 0 272 228" fill="none" xmlns="http://www.w3.org/2000/svg">
<circle cx="136" cy="133.783" r="93.5" stroke="black"/>
<path d="M79.1004 144.832H78.0601V144.328H80.7245V144.832H79.6842V147.535H79.1004V144.832Z" fill="#121212"/>
<path d="M82.5596 145.932C82.5596 144.986 83.2781 144.283 84.2511 144.283C85.224 144.283 85.9425 144.978 85.9425 145.932C85.9425 146.887 85.224 147.582 84.2511 147.582C83.2856 147.582 82.5596 146.879 82.5596 145.932ZM85.3588 145.932C85.3588 145.276 84.8872 144.802 84.2511 144.802C83.6149 144.802 83.1434 145.276 83.1434 145.932C83.1434 146.589 83.6149 147.062 84.2511 147.062C84.8872 147.062 85.3588 146.589 85.3588 145.932Z" fill="#121212"/>
<path d="M92.1428 144.33H93.52C94.5379 144.33 95.2339 144.971 95.2339 145.933C95.2339 146.895 94.5379 147.537 93.52 147.537H92.1428V144.33ZM93.49 147.033C94.1936 147.033 94.6426 146.598 94.6426 145.933C94.6426 145.269 94.1861 144.834 93.49 144.834H92.7266V147.033H93.49Z" fill="#121212"/>
<path d="M97.521 144.33H98.1048V147.537H97.521V144.33Z" fill="#121212"/>
<path d="M102.766 145.898H103.32V147.173C102.99 147.44 102.534 147.578 102.085 147.578C101.112 147.578 100.393 146.883 100.393 145.928C100.393 144.974 101.112 144.279 102.092 144.279C102.616 144.279 103.058 144.455 103.357 144.798L102.99 145.165C102.743 144.913 102.459 144.798 102.122 144.798C101.456 144.798 100.985 145.264 100.985 145.928C100.985 146.577 101.456 147.058 102.122 147.058C102.347 147.058 102.564 147.013 102.766 146.89V145.898Z" fill="#121212"/>
<path d="M105.75 144.33H106.334V147.537H105.75V144.33Z" fill="#121212"/>
<path d="M109.484 144.834H108.444V144.33H111.108V144.834H110.068V147.537H109.484V144.834Z" fill="#121212"/>
<path d="M115.099 146.796H113.527L113.22 147.537H112.621L114.036 144.33H114.612L116.034 147.537H115.421L115.099 146.796ZM114.904 146.33L114.313 144.926L113.722 146.33H114.904Z" fill="#121212"/>
<path d="M118.087 144.33H118.671V147.033H120.317V147.537H118.087V144.33Z" fill="#121212"/>
<path d="M122.445 144.33H123.028V147.537H122.445V144.33Z" fill="#121212"/>
<path d="M125.278 147.2L125.48 146.734C125.735 146.94 126.131 147.085 126.52 147.085C127.007 147.085 127.217 146.91 127.217 146.665C127.217 145.971 125.345 146.429 125.345 145.238C125.345 144.718 125.75 144.283 126.61 144.283C126.985 144.283 127.381 144.382 127.658 144.566L127.471 145.031C127.187 144.863 126.88 144.779 126.603 144.779C126.116 144.779 125.922 144.97 125.922 145.215C125.922 145.894 127.785 145.451 127.785 146.627C127.785 147.139 127.374 147.582 126.513 147.582C126.027 147.582 125.54 147.429 125.278 147.2Z" fill="#121212"/>
<path d="M132.39 147.041V147.537H130.032V144.33H132.33V144.826H130.616V145.666H132.135V146.155H130.616V147.041H132.39Z" fill="#121212"/>
<path d="M147.069 144.834H146.029V144.33H148.693V144.834H147.653V147.537H147.069V144.834Z" fill="#121212"/>
<path d="M150.538 145.932C150.538 144.986 151.257 144.283 152.23 144.283C153.203 144.283 153.921 144.978 153.921 145.932C153.921 146.887 153.203 147.582 152.23 147.582C151.257 147.582 150.538 146.879 150.538 145.932ZM153.338 145.932C153.338 145.276 152.866 144.802 152.23 144.802C151.594 144.802 151.122 145.276 151.122 145.932C151.122 146.589 151.594 147.062 152.23 147.062C152.866 147.062 153.338 146.589 153.338 145.932Z" fill="#121212"/>
<path d="M159.859 147.2L160.061 146.734C160.315 146.94 160.712 147.085 161.101 147.085C161.588 147.085 161.797 146.91 161.797 146.665C161.797 145.971 159.926 146.429 159.926 145.238C159.926 144.718 160.33 144.283 161.191 144.283C161.565 144.283 161.962 144.382 162.239 144.566L162.052 145.031C161.767 144.863 161.46 144.779 161.183 144.779C160.697 144.779 160.502 144.97 160.502 145.215C160.502 145.894 162.366 145.451 162.366 146.627C162.366 147.139 161.954 147.582 161.094 147.582C160.607 147.582 160.121 147.429 159.859 147.2Z" fill="#121212"/>
<path d="M164.611 144.33H165.195V147.537H164.611V144.33Z" fill="#121212"/>
<path d="M170.597 147.541L170.59 145.41L169.557 147.166H169.295L168.262 145.433V147.533H167.708V144.326H168.187L169.437 146.456L170.664 144.326H171.143L171.151 147.533H170.597V147.541Z" fill="#121212"/>
<path d="M176.301 145.471C176.301 146.174 175.792 146.609 174.961 146.609H174.25V147.533H173.666V144.326H174.961C175.784 144.334 176.301 144.761 176.301 145.471ZM175.709 145.471C175.709 145.067 175.447 144.838 174.931 144.838H174.25V146.113H174.931C175.447 146.113 175.709 145.876 175.709 145.471Z" fill="#121212"/>
<path d="M178.547 144.33H179.131V147.033H180.777V147.537H178.547V144.33Z" fill="#121212"/>
<path d="M182.905 144.33H183.489V147.537H182.905V144.33Z" fill="#121212"/>
<path d="M186.584 144.826V145.804H188.104V146.308H186.584V147.537H186V144.33H188.298V144.826H186.584Z" fill="#121212"/>
<path d="M191.881 146.407V147.537H191.298V146.414L190.063 144.33H190.684L191.605 145.895L192.533 144.33H193.109L191.881 146.407Z" fill="#121212"/>
<path d="M138.996 147.04C139.463 147.04 139.842 146.654 139.842 146.177C139.842 145.701 139.463 145.314 138.996 145.314C138.529 145.314 138.15 145.701 138.15 146.177C138.15 146.654 138.529 147.04 138.996 147.04Z" fill="#FFB921"/>
<path d="M143.239 137.573L143.508 138.008C144.392 139.459 143.239 140.925 141.57 140.925H141.435C140.702 140.925 140.013 140.535 139.624 139.902L137.82 137.298L135.418 133.626L135.313 133.442C134.527 132.358 134.849 132.587 133.232 132.587H128.749V140.917H124.266V119.875H137.468C139.332 119.875 141.016 120.509 142.236 121.532C143.456 122.555 144.212 123.967 144.212 125.533C144.212 127.815 143.793 130.747 141.458 131.656C140.851 131.9 140.2 132.045 139.519 132.106L143.239 137.573ZM137.461 128.426C137.783 128.426 138.105 128.365 138.397 128.243C139.22 127.945 139.759 127.067 139.759 125.96C139.759 124.968 139.325 124.517 139.078 124.303C138.793 124.059 138.254 123.761 137.461 123.761H128.749V128.449L137.461 128.426Z" fill="#E01E26"/>
<path d="M151.038 125.557V127.512H160.034C161.052 127.512 161.876 128.352 161.876 129.39C161.876 130.428 161.052 131.268 160.034 131.268H151.038V135.238C151.038 136.292 152.078 137.163 153.336 137.163H165.034V140.919H153.336C149.609 140.919 146.592 138.361 146.592 135.231V125.557C146.592 122.427 149.601 119.869 153.336 119.869H165.034V123.626H153.336C152.078 123.633 151.038 124.504 151.038 125.557Z" fill="#E01E26"/>
<path d="M178.003 140.914H178.078L178.003 140.975V140.914ZM203.001 119.918L193.324 130.431L192.785 131.004V138.822C192.785 139.96 191.879 140.891 190.757 140.891H190.345C189.23 140.891 188.317 139.968 188.317 138.822V131.057L187.711 130.431L178.041 119.918H183.684L190.54 127.377L197.395 119.918H203.001ZM202.964 140.914H203.001V140.975L202.964 140.914Z" fill="#E01E26"/>
<path d="M121.716 140.925L112.638 121.623H112.63C112.159 120.554 110.856 119.783 109.09 119.783C107.181 119.783 106.029 120.554 105.55 121.623H105.542L96.4711 140.925H101.583L109.038 125.067C109.052 125.067 109.075 125.067 109.09 125.067C109.112 125.067 109.127 125.067 109.15 125.067L116.604 140.925H121.716Z" fill="#E01E26"/>
<path d="M88.0229 125.156C87.993 125.087 87.963 125.018 87.9331 124.957H87.9406L88.0229 125.156Z" fill="white"/>
<path d="M101.744 119.83L92.5685 140.888H89.3203L85.3685 131.183L81.4167 140.888H78.1685L69 119.83H74.4711L80.0471 132.084L82.6067 125.449L82.7789 125.007C82.7864 124.991 82.7938 124.976 82.8013 124.961C83.4001 123.686 84.418 123.434 85.3835 123.434C86.319 123.434 87.2845 123.579 87.9432 124.961C87.9731 125.022 88.003 125.091 88.033 125.159C88.033 125.167 88.0404 125.175 88.0404 125.182L88.0928 125.312L90.8097 132.145L96.2733 119.83H101.744Z" fill="#E01E26"/>
<path d="M82.7941 124.957C82.7861 124.973 82.7781 124.988 82.77 125.004L82.7941 124.957Z" fill="white"/>
<path d="M82.6063 125.447C82.6587 125.286 82.711 125.141 82.7784 125.004L82.6063 125.447Z" fill="white"/>
<path d="M184.944 137.03V141.061H176.187C174.93 141.061 173.747 140.817 172.669 140.367C171.09 139.702 169.803 138.618 169.047 137.297C168.508 136.396 168.224 135.404 168.224 134.35V122.249C168.224 121.012 169.212 120.004 170.424 120.004H170.506C171.719 120.004 172.707 121.012 172.707 122.249V134.442C172.737 136.045 174.024 136.984 175.753 137L184.944 137.03Z" fill="#E01E26"/>
<path d="M109.087 138.412C110.406 138.412 111.475 137.322 111.475 135.977C111.475 134.631 110.406 133.541 109.087 133.541C107.768 133.541 106.699 134.631 106.699 135.977C106.699 137.322 107.768 138.412 109.087 138.412Z" fill="#FFB921"/>
<path d="M26.0784 125.532L26.0467 125.721C26.0362 125.784 26.0204 125.83 25.9993 125.859C25.9967 125.875 25.9782 125.888 25.944 125.898L12.7328 128.653C10.9492 129.037 9.81665 129.358 9.33516 129.618C8.8563 129.863 8.56409 130.301 8.45855 130.932L8.45063 130.979C8.42688 131.121 8.38477 131.179 8.32428 131.153C8.24802 131.124 8.2178 131.062 8.23363 130.967C8.25738 130.825 8.29298 130.661 8.34042 130.474C8.37472 130.269 8.43407 129.962 8.51845 129.555C8.57909 129.289 8.61733 129.109 8.63316 129.014C8.65163 128.904 8.66482 128.825 8.67274 128.778C8.68065 128.73 8.69517 128.643 8.71628 128.517C8.74002 128.375 8.77435 128.121 8.81926 127.756C8.89847 127.185 8.95919 126.773 9.00141 126.521C9.02785 126.266 9.05294 126.067 9.07669 125.925C9.09252 125.83 9.13989 125.79 9.21879 125.803C9.28455 125.798 9.30952 125.842 9.29369 125.937L9.19078 126.553C9.13009 126.915 9.14046 127.193 9.22191 127.385C9.2902 127.559 9.44139 127.673 9.67547 127.729C9.92796 127.771 10.5119 127.722 11.4274 127.584C12.3297 127.426 13.5977 127.168 15.2313 126.808L24.2914 124.868C24.3256 124.857 24.3598 124.847 24.394 124.836C24.415 124.807 24.4269 124.785 24.4295 124.769C24.4322 124.753 24.4269 124.736 24.4138 124.718C24.3875 124.681 24.3599 124.652 24.331 124.631L18.32 120.706L13.6557 121.824C13.0112 121.992 12.51 122.127 12.1522 122.23C11.7813 122.314 11.4761 122.392 11.2367 122.466C10.6711 122.647 10.283 122.834 10.0725 123.026C9.84882 123.199 9.69345 123.546 9.60637 124.067L9.57471 124.256C9.5536 124.383 9.51148 124.441 9.44836 124.43C9.37209 124.401 9.34187 124.339 9.3577 124.244C9.38145 124.102 9.41837 123.93 9.46845 123.728C9.50539 123.507 9.5687 123.177 9.65836 122.737C9.72164 122.456 9.76251 122.26 9.78098 122.15C9.79945 122.039 9.81264 121.96 9.82056 121.913C9.82848 121.866 9.84035 121.795 9.85618 121.7C9.87465 121.589 9.89711 121.407 9.92355 121.151C9.97373 120.754 10.0147 120.461 10.0463 120.272C10.0648 120.064 10.086 119.889 10.1097 119.747C10.1256 119.652 10.1729 119.611 10.2518 119.625C10.315 119.635 10.3386 119.688 10.3228 119.783L10.2911 119.972C10.2357 120.303 10.2448 120.54 10.3183 120.682C10.3919 120.824 10.5313 120.912 10.7364 120.947C11.0047 120.992 11.3967 120.976 11.9122 120.9C12.4305 120.808 13.1789 120.649 14.1575 120.424L17.2 119.691L14.5257 118.076C13.9814 117.742 13.4752 117.471 13.0071 117.263C12.5416 117.039 12.1511 116.901 11.8355 116.848C11.5041 116.792 11.2371 116.837 11.0344 116.982C10.8345 117.11 10.7107 117.317 10.6632 117.601C10.6527 117.664 10.65 117.728 10.6552 117.794C10.6447 117.857 10.6367 117.953 10.6314 118.082C10.6393 118.132 10.6406 118.173 10.6353 118.204C10.6327 118.22 10.63 118.236 10.6274 118.252C10.6195 118.299 10.605 118.337 10.5839 118.366C10.5655 118.379 10.5326 118.382 10.4853 118.374C10.4379 118.366 10.409 118.345 10.3985 118.311C10.3749 118.258 10.371 118.185 10.3868 118.09C10.4 118.011 10.4198 117.893 10.4462 117.735C10.4725 117.577 10.5253 117.31 10.6044 116.934C10.6782 116.589 10.727 116.346 10.7508 116.204C10.7745 116.062 10.7917 115.96 10.8022 115.896C10.8101 115.849 10.8233 115.77 10.8418 115.66C10.8603 115.549 10.888 115.335 10.925 115.017C10.991 114.525 11.0412 114.176 11.0755 113.971C11.1124 113.75 11.1401 113.584 11.1586 113.474C11.1744 113.379 11.2205 113.346 11.2967 113.375C11.3599 113.386 11.3848 113.431 11.3716 113.51L11.2687 114.125C11.1685 114.725 11.3457 115.265 11.8005 115.747C12.2396 116.226 13.2032 116.914 14.6916 117.812L17.5788 119.609L25.7195 117.636C25.7695 117.628 25.8037 117.618 25.8221 117.605C25.8406 117.592 25.8511 117.577 25.8537 117.561C25.8564 117.546 25.8511 117.529 25.838 117.51C25.8117 117.473 25.7841 117.444 25.7552 117.423L16.4347 111.899C15.6221 111.422 14.9595 111.068 14.4466 110.836C13.9181 110.602 13.4802 110.456 13.133 110.397C12.7227 110.329 12.3978 110.38 12.1584 110.551C11.9189 110.722 11.7636 111.02 11.6923 111.446C11.6818 111.509 11.6778 111.582 11.6804 111.663C11.6698 111.726 11.6684 111.832 11.6763 111.979C11.6788 112.06 11.6775 112.117 11.6722 112.149C11.6696 112.164 11.6669 112.18 11.6643 112.196C11.6564 112.243 11.6419 112.281 11.6208 112.31C11.584 112.337 11.5419 112.346 11.4946 112.338C11.4472 112.33 11.4196 112.301 11.4118 112.251C11.3881 112.198 11.3842 112.125 11.4 112.03C11.4132 111.951 11.4343 111.825 11.4634 111.651C11.495 111.462 11.557 111.14 11.6493 110.685C11.7416 110.23 11.8023 109.915 11.8313 109.742C11.8603 109.568 11.8801 109.45 11.8907 109.387C11.8986 109.339 11.9105 109.268 11.9263 109.174C11.9421 109.079 11.9619 108.912 11.9857 108.673C12.0333 108.291 12.0716 108.014 12.1006 107.84C12.1323 107.651 12.1587 107.493 12.1798 107.367C12.1956 107.272 12.2416 107.239 12.3179 107.268C12.381 107.279 12.406 107.323 12.3928 107.402L12.3809 107.473C12.2807 108.073 12.5237 108.657 13.1099 109.226C13.6804 109.791 14.844 110.594 16.6005 111.634L27.2936 117.973C27.3226 117.994 27.3344 118.02 27.3291 118.051C27.3423 118.07 27.3449 118.103 27.337 118.15L27.2974 118.387C27.2895 118.434 27.275 118.472 27.2539 118.501C27.2513 118.517 27.2329 118.53 27.1987 118.541L18.7264 120.604L26.0311 125.378C26.06 125.399 26.0732 125.417 26.0705 125.433C26.0837 125.451 26.0863 125.484 26.0784 125.532Z" fill="#121212"/>
<path d="M32.5672 96.8019C32.4504 97.1002 32.3559 97.3297 32.2836 97.4901C32.2179 97.636 32.1555 97.7746 32.0964 97.9059C32.057 97.9935 32.0081 98.0241 31.9498 97.9978C31.8768 97.965 31.86 97.9048 31.8995 97.8173C32.0965 97.3796 32.1013 97.0571 31.9139 96.8499C31.733 96.6281 31.0736 96.261 29.9356 95.7486L17.4397 90.1225C17.0896 89.9649 16.8058 89.8547 16.5884 89.7919C16.3564 89.7225 16.1762 89.6941 16.0478 89.7064C15.8625 89.7283 15.7192 89.8129 15.6177 89.9602C15.5229 90.093 15.4167 90.3873 15.2991 90.8433C15.2743 90.9374 15.2327 90.9713 15.1743 90.945C15.1014 90.9122 15.0773 90.8487 15.1022 90.7546C15.2431 90.1688 15.3234 89.6786 15.3432 89.2839C15.3549 88.8681 15.3058 88.4511 15.1957 88.0331C15.1797 87.9908 15.2059 87.9324 15.2745 87.858C15.3431 87.7836 15.3993 87.7563 15.4431 87.776L24.6125 91.9044C23.9956 90.8194 23.6292 89.821 23.5133 88.9091C23.3975 87.9971 23.5235 87.1326 23.8914 86.3156C24.4366 85.1047 25.2232 84.3709 26.2511 84.1143C27.2857 83.8432 28.5616 84.0491 30.0789 84.7323L35.0685 86.9788C35.6375 87.235 36.0398 87.3547 36.2755 87.338C36.5177 87.3066 36.7472 87.0502 36.9639 86.5688C37.0033 86.4813 37.0595 86.4539 37.1325 86.4868C37.1908 86.513 37.2003 86.5699 37.1609 86.6575C37.1477 86.6866 37.1248 86.7377 37.0919 86.8107C37.0591 86.8836 36.9828 87.0335 36.8631 87.2604C36.6989 87.6251 36.5807 87.8877 36.5084 88.0482C36.4281 88.1875 36.3716 88.2937 36.3387 88.3666C36.319 88.4104 36.2895 88.476 36.25 88.5636C36.2172 88.6365 36.1687 88.7638 36.1044 88.9455C35.9876 89.2438 35.8931 89.4732 35.8209 89.6337C35.7552 89.7796 35.6928 89.9182 35.6337 90.0495C35.5942 90.1371 35.5454 90.1677 35.487 90.1414C35.4141 90.1086 35.3973 90.0484 35.4367 89.9608C35.6732 89.4356 35.6864 89.0555 35.4763 88.8206C35.2517 88.5791 34.6652 88.2448 33.7169 87.8179L29.4713 85.9064C28.1729 85.3217 27.0837 85.1297 26.2039 85.3301C25.324 85.5306 24.664 86.1195 24.2239 87.097C23.902 87.8119 23.8001 88.5644 23.9182 89.3545C24.0216 90.1381 24.3552 91.034 24.9189 92.0423L32.8848 95.6288L33.4464 94.3814C33.4858 94.2939 33.542 94.2666 33.6149 94.2994C33.6733 94.3257 33.6828 94.3826 33.6433 94.4701C33.6302 94.4993 33.6039 94.5577 33.5645 94.6452C33.5317 94.7181 33.4554 94.868 33.3357 95.0949C33.1715 95.4596 33.0533 95.7223 32.981 95.8827C32.8942 96.0367 32.8343 96.1501 32.8015 96.223C32.7818 96.2668 32.7522 96.3325 32.7128 96.42C32.68 96.4929 32.6314 96.6202 32.5672 96.8019Z" fill="#121212"/>
<path d="M44.6795 82.0855C44.3524 82.5596 44.0054 82.8936 43.6384 83.0875C43.2755 83.3037 42.9952 83.3436 42.7977 83.2073C42.6265 83.0892 42.5188 82.8789 42.4748 82.5764C42.444 82.283 42.5103 82.0178 42.6739 81.7807C42.7556 81.6622 42.8571 81.5573 42.9784 81.466C43.0997 81.3747 43.31 81.2671 43.6093 81.1431C43.94 81.0019 44.175 80.8725 44.3145 80.7549C44.4671 80.6464 44.5934 80.5197 44.6933 80.3748C45.0658 79.8348 45.1826 79.1865 45.0437 78.4298C44.9049 77.6731 44.5153 76.7726 43.875 75.7284L43.531 75.1704L34.4102 73.5144C32.7947 73.2358 31.7801 73.1288 31.3663 73.1932C30.9485 73.2354 30.569 73.5178 30.2278 74.0406C30.1824 74.1064 30.1333 74.1212 30.0806 74.0848C30.0148 74.0394 30.0046 73.9838 30.05 73.9179C30.0682 73.8916 30.1091 73.8323 30.1727 73.7401C30.2362 73.6479 30.37 73.4681 30.574 73.2006C30.8779 72.7882 31.0843 72.503 31.1934 72.345C31.3115 72.1738 31.3932 72.0552 31.4387 71.9894C31.4659 71.9499 31.5068 71.8906 31.5613 71.8116C31.6158 71.7326 31.7092 71.5831 31.8414 71.3633C32.0463 71.0382 32.2032 70.7966 32.3122 70.6385C32.4213 70.4805 32.5121 70.3488 32.5848 70.2434C32.6393 70.1644 32.6995 70.1476 32.7653 70.193C32.818 70.2294 32.8171 70.287 32.7626 70.3661C32.5082 70.7348 32.364 71.0144 32.3299 71.2047C32.2917 71.3727 32.3471 71.5178 32.4961 71.64C32.6187 71.744 32.8035 71.8424 33.0506 71.9351C33.3067 72.0146 33.7623 72.115 34.4172 72.2364L42.6224 73.698L38.5539 67.0428C38.009 66.1421 37.4708 65.6542 36.9394 65.5792C36.4171 65.491 35.9061 65.8091 35.4064 66.5335C35.3519 66.6125 35.2983 66.6339 35.2456 66.5975C35.1798 66.5521 35.1741 66.4899 35.2286 66.4108C35.3104 66.2923 35.4124 66.1586 35.5346 66.0096C35.6527 65.8384 35.8344 65.575 36.0797 65.2194C36.2473 65.0046 36.3584 64.8577 36.4129 64.7786C36.4765 64.6864 36.5219 64.6206 36.5492 64.5811C36.5946 64.5152 36.6673 64.4099 36.7672 64.265C36.8762 64.1069 37.0559 63.8324 37.3062 63.4414C37.4656 63.1821 37.5726 63.0129 37.6271 62.9339C37.6816 62.8549 37.718 62.8022 37.7362 62.7758C37.7816 62.71 37.8372 62.6998 37.9031 62.7452C37.9558 62.7815 37.9594 62.8326 37.914 62.8985C37.601 63.324 37.5128 63.8463 37.6494 64.4654C37.7729 65.0754 38.1548 65.9025 38.7951 66.9467L44.0508 75.5581C44.9031 76.943 45.3722 78.1509 45.4579 79.182C45.5658 80.2089 45.3064 81.1767 44.6795 82.0855Z" fill="#121212"/>
<path d="M61.0247 60.9249C60.5919 61.305 60.1739 61.5443 59.7707 61.6429C59.366 61.764 59.0845 61.7344 58.9261 61.5541C58.7889 61.3978 58.7358 61.1676 58.7669 60.8635C58.8085 60.5714 58.9375 60.3304 59.1539 60.1403C59.2621 60.0453 59.3861 59.9683 59.526 59.9094C59.6659 59.8504 59.8961 59.7973 60.2166 59.7501C60.5717 59.6938 60.8312 59.6256 60.9951 59.5455C61.1696 59.4775 61.323 59.3854 61.4552 59.2692C61.9481 58.8364 62.2195 58.2361 62.2693 57.4684C62.3191 56.7006 62.1608 55.7324 61.7945 54.5635L61.5969 53.9385L53.1552 50.1087C51.6563 49.4446 50.6984 49.0934 50.2814 49.055C49.8659 48.994 49.429 49.1754 48.9707 49.5992C48.9106 49.652 48.8594 49.6543 48.8172 49.6062C48.7644 49.5461 48.768 49.4897 48.8281 49.4369C48.8522 49.4158 48.9063 49.3683 48.9904 49.2944C49.0746 49.2205 49.2482 49.0787 49.5112 48.869C49.9065 48.5431 50.1763 48.3169 50.3205 48.1902C50.4768 48.0529 50.585 47.9579 50.6451 47.9051C50.6812 47.8735 50.7353 47.826 50.8074 47.7626C50.8796 47.6993 51.0065 47.5771 51.1883 47.3962C51.4663 47.1308 51.6774 46.9347 51.8217 46.808C51.966 46.6813 52.0862 46.5758 52.1824 46.4913C52.2545 46.4279 52.317 46.4263 52.3697 46.4864C52.412 46.5345 52.397 46.5902 52.3249 46.6536C51.9883 46.9492 51.7802 47.1851 51.7008 47.3614C51.6228 47.5151 51.6411 47.6693 51.7558 47.8241C51.8493 47.9549 52.0046 48.0954 52.2216 48.2455C52.4507 48.3851 52.868 48.5935 53.4735 48.8709L61.0747 52.289L58.7517 44.8426C58.4428 43.8363 58.0398 43.2319 57.5428 43.0296C57.0577 42.8167 56.4846 43.0006 55.8234 43.5813C55.7512 43.6447 55.6941 43.6523 55.6518 43.6042C55.599 43.5441 55.6087 43.4824 55.6808 43.419C55.789 43.324 55.9206 43.2191 56.0754 43.1045C56.2317 42.9672 56.4721 42.7561 56.7967 42.471C57.0117 42.3036 57.1552 42.1882 57.2273 42.1248C57.3115 42.0509 57.3716 41.9981 57.4077 41.9664C57.4678 41.9137 57.564 41.8292 57.6962 41.7131C57.8405 41.5864 58.0816 41.3639 58.4197 41.0457C58.6376 40.8331 58.7826 40.6951 58.8547 40.6318C58.9269 40.5684 58.975 40.5262 58.999 40.5051C59.0591 40.4523 59.1156 40.456 59.1684 40.5161C59.2106 40.5642 59.2016 40.6146 59.1415 40.6674C58.7342 41.0038 58.5214 41.4888 58.5029 42.1225C58.474 42.7442 58.6426 43.6395 59.009 44.8083L62.0065 54.4412C62.4954 55.9921 62.6558 57.278 62.4875 58.2988C62.3419 59.3211 61.8543 60.1964 61.0247 60.9249Z" fill="#121212"/>
<path d="M79.1241 33.9155C80.0025 35.385 80.2413 36.9851 79.8405 38.7159C79.4535 40.4385 78.5116 41.7472 77.0146 42.642C75.5177 43.5368 74.0053 43.7977 72.4775 43.4248C70.9553 43.0299 69.7385 42.0702 68.8273 40.5458C67.9079 39.0076 67.6457 37.3842 68.041 35.6753C68.4362 33.9665 69.4028 32.6523 70.941 31.7329C72.4379 30.8381 73.9407 30.5922 75.4492 30.9953C76.9715 31.3902 78.1964 32.3636 79.1241 33.9155ZM69.854 39.4568C70.7159 40.8988 71.8572 41.9036 73.2776 42.4712C74.6898 43.0251 76.0002 42.9408 77.2088 42.2184C78.3624 41.5288 79.0254 40.5174 79.1977 39.1841C79.37 37.8508 79.0129 36.4425 78.1263 34.9593C77.2315 33.4624 76.0848 32.4329 74.6863 31.8708C73.3015 31.3005 72.0117 31.3724 70.8169 32.0866C69.6221 32.8009 68.9358 33.8356 68.7579 35.1908C68.5856 36.5241 68.951 37.9461 69.854 39.4568Z" fill="#121212"/>
<path d="M95.1778 33.303C93.8978 33.7628 92.7962 33.725 91.8728 33.1897C90.9645 32.6489 90.2372 31.6181 89.6908 30.0973L88.0518 25.5348C87.7975 24.827 87.5653 24.4174 87.3553 24.3059C87.1452 24.1943 86.7386 24.3404 86.1356 24.744C86.0506 24.7916 85.9974 24.7852 85.9757 24.725C85.9336 24.6551 85.955 24.5964 86.04 24.5489C86.4592 24.2963 86.8301 24.027 87.1524 23.7412C87.4844 23.4349 87.8077 23.0808 88.1223 22.6787C88.1416 22.6378 88.1943 22.6189 88.2804 22.6219C88.3816 22.6196 88.4403 22.641 88.4565 22.6862L90.98 29.7106C91.429 30.9604 92.0463 31.8268 92.8318 32.3096C93.6269 32.772 94.5139 32.8274 95.4926 32.4758C96.2606 32.1999 96.8905 31.7526 97.3822 31.1339C97.874 30.5152 98.2524 29.6992 98.5174 28.6859L96.3185 22.565C96.0642 21.8572 95.8321 21.4476 95.622 21.3361C95.4119 21.2245 95.0053 21.3706 94.4023 21.7742C94.3174 21.8218 94.2566 21.8181 94.2199 21.7633C94.1928 21.688 94.2218 21.6266 94.3067 21.5791C94.726 21.3264 95.0893 21.0599 95.3965 20.7795C95.7189 20.4937 96.0422 20.1395 96.3664 19.717C96.3857 19.6761 96.4384 19.6572 96.5246 19.6602C96.6257 19.6579 96.6844 19.6793 96.7006 19.7245L100.003 28.9173C100.322 29.8057 100.577 30.3261 100.768 30.4786C100.974 30.6257 101.348 30.6018 101.89 30.4071C101.95 30.3854 101.994 30.4123 102.021 30.4876C102.043 30.5478 102.023 30.5887 101.963 30.6104C101.481 30.7835 101.065 30.95 100.714 31.1099C100.379 31.2645 100.001 31.468 99.5822 31.7207C99.5273 31.7574 99.4795 31.7661 99.4385 31.7468C99.3976 31.7275 99.3663 31.6877 99.3447 31.6275C99.3184 31.3649 99.2445 31.0174 99.1232 30.585C99.0169 30.1471 98.8637 29.6496 98.6635 29.0925L98.6229 28.9796C98.3247 30.0898 97.8755 31.0162 97.2752 31.7589C96.69 32.4962 95.9909 33.0108 95.1778 33.303Z" fill="#121212"/>
<path d="M119.132 26.3044C118.814 26.3464 118.568 26.3746 118.392 26.389C118.233 26.4021 118.081 26.4145 117.938 26.4262C117.842 26.434 117.792 26.4061 117.787 26.3423C117.78 26.2626 117.825 26.2188 117.92 26.2109C118.399 26.1718 118.683 26.02 118.774 25.7557C118.881 25.4901 118.883 24.7354 118.781 23.4916L118.313 17.7747C118.279 17.3601 118.149 16.9454 117.922 16.5305C117.696 16.1156 117.428 15.7844 117.118 15.5368C117.084 15.5075 117.066 15.4849 117.065 15.4689C117.062 15.437 117.076 15.4118 117.107 15.3932C117.429 15.2064 117.681 15.0493 117.863 14.922C118.044 14.7787 118.185 14.6467 118.288 14.526C118.317 14.4914 118.34 14.4815 118.358 14.4962C118.374 14.4949 118.399 14.5088 118.433 14.5381C118.727 14.787 118.981 15.1435 119.195 15.6075C119.41 16.0715 119.537 16.5428 119.576 17.0212C120.242 15.9392 120.946 15.127 121.688 14.5847C122.429 14.0263 123.246 13.7106 124.139 13.6375C125.462 13.5291 126.485 13.8627 127.207 14.6384C127.944 15.4128 128.381 16.6292 128.517 18.2877L128.917 23.1673C128.945 23.5182 128.977 23.8125 129.013 24.0504C129.047 24.2724 129.087 24.4618 129.132 24.6186C129.216 24.8685 129.318 25.0368 129.438 25.1233C129.573 25.2086 129.84 25.2348 130.239 25.2022C130.335 25.1944 130.386 25.2303 130.392 25.31C130.398 25.3738 130.352 25.4096 130.257 25.4175C130.225 25.4201 130.169 25.4247 130.089 25.4312C130.01 25.4377 129.841 25.4435 129.585 25.4484C129.186 25.481 128.899 25.5046 128.724 25.5189C128.563 25.516 128.443 25.5178 128.363 25.5244C128.315 25.5283 128.251 25.5335 128.172 25.54C128.092 25.5466 127.949 25.5663 127.743 25.5992C127.441 25.64 127.203 25.6675 127.027 25.6819C126.868 25.695 126.717 25.7074 126.573 25.7191C126.477 25.727 126.427 25.699 126.422 25.6352C126.415 25.5555 126.46 25.5117 126.555 25.5038C127.098 25.4594 127.421 25.2885 127.525 24.991C127.645 24.6922 127.666 24.0724 127.589 23.1316L127.196 18.3236C127.079 16.9044 126.721 15.8582 126.12 15.185C125.519 14.5118 124.684 14.2189 123.616 14.3064C122.818 14.3717 122.102 14.647 121.468 15.1324C120.833 15.6178 120.211 16.3511 119.601 17.3321L120.312 26.0151L121.556 25.9132C121.652 25.9054 121.703 25.9413 121.709 26.0211C121.715 26.0848 121.669 26.1207 121.574 26.1285C121.542 26.1311 121.486 26.1357 121.406 26.1422C121.327 26.1487 121.166 26.1538 120.926 26.1575C120.543 26.1888 120.272 26.211 120.113 26.224C119.952 26.2212 119.832 26.223 119.752 26.2295C119.704 26.2334 119.632 26.2393 119.537 26.2471C119.457 26.2537 119.322 26.2727 119.132 26.3044Z" fill="#121212"/>
<path d="M148.855 25.1995C148.261 25.5092 147.651 25.7289 147.027 25.8586C146.42 25.9741 145.799 25.9996 145.162 25.9351C143.331 25.7496 141.912 25.0751 140.904 23.9116C139.914 22.7338 139.506 21.2853 139.68 19.5661C139.862 17.7673 140.673 16.2734 142.112 15.0844C143.567 13.897 145.162 13.3912 146.897 13.567C148.218 13.7008 149.223 14.1081 149.909 14.7888C150.596 15.4695 150.874 16.2213 150.742 17.0442C150.696 17.345 150.561 17.5646 150.338 17.7028C150.132 17.8267 149.831 17.8685 149.433 17.8282L141.362 17.0106C141.234 17.3193 141.129 17.6464 141.046 17.9917C140.978 18.3387 140.925 18.7032 140.886 19.0853C140.732 20.6135 141.135 21.9489 142.097 23.0917C143.076 24.2201 144.401 24.869 146.073 25.0383C147.49 25.1818 148.757 24.8921 149.876 24.1691C151.01 23.4478 152.022 22.2718 152.911 20.6411C152.987 20.5202 153.048 20.4781 153.093 20.5147C153.139 20.5355 153.132 20.5992 153.073 20.7057C152.535 21.7288 151.905 22.6298 151.183 23.409C150.463 24.1723 149.686 24.7691 148.855 25.1995ZM149.203 16.5264C149.264 15.9215 149.031 15.3671 148.503 14.8634C147.976 14.3437 147.252 14.0371 146.328 13.9436C145.214 13.8307 144.229 14.0284 143.374 14.5368C142.52 15.0292 141.871 15.7918 141.429 16.8245C142.639 16.947 144.017 17.0706 145.565 17.1952C147.128 17.3213 147.926 17.3861 147.957 17.3893C148.15 17.3927 148.344 17.3802 148.54 17.3518C148.754 17.3091 148.887 17.2663 148.939 17.2234C149.011 17.1502 149.068 17.0596 149.111 16.9514C149.156 16.8272 149.187 16.6856 149.203 16.5264Z" fill="#121212"/>
<path d="M167.879 29.1317C167.239 29.3325 166.601 29.4421 165.964 29.4605C165.346 29.4679 164.73 29.3841 164.114 29.2091C162.344 28.7059 161.065 27.7933 160.276 26.4713C159.508 25.1383 159.36 23.6407 159.832 21.9786C160.327 20.2395 161.386 18.9106 163.011 17.992C164.652 17.0778 166.311 16.8592 167.989 17.3361C169.266 17.6992 170.183 18.276 170.74 19.0665C171.297 19.857 171.439 20.6458 171.165 21.433C171.067 21.721 170.896 21.9135 170.652 22.0105C170.428 22.0965 170.123 22.0849 169.739 21.9755L161.936 19.7571C161.756 20.0387 161.595 20.3422 161.452 20.6677C161.325 20.9975 161.209 21.3471 161.104 21.7165C160.684 23.1939 160.848 24.5794 161.594 25.8729C162.361 27.1554 163.552 28.0263 165.168 28.4858C166.538 28.8752 167.837 28.8119 169.064 28.296C170.308 27.7845 171.51 26.8039 172.67 25.354C172.767 25.2484 172.834 25.2175 172.871 25.2614C172.913 25.29 172.896 25.3515 172.819 25.4461C172.11 26.3591 171.332 27.136 170.485 27.7766C169.641 28.4019 168.773 28.8536 167.879 29.1317ZM169.74 20.6535C169.906 20.0687 169.774 19.4821 169.342 18.8936C168.915 18.2898 168.255 17.861 167.363 17.6072C166.285 17.3009 165.281 17.3231 164.349 17.6738C163.422 18.0091 162.651 18.6463 162.034 19.5856C163.204 19.9181 164.54 20.2812 166.041 20.6748C167.558 21.0728 168.332 21.2762 168.363 21.285C168.552 21.3221 168.745 21.3438 168.943 21.3501C169.161 21.3455 169.299 21.3266 169.359 21.2936C169.442 21.2341 169.514 21.1549 169.576 21.0559C169.642 20.9415 169.696 20.8074 169.74 20.6535Z" fill="#121212"/>
<path d="M181.482 35.3671C180.209 34.7286 179.37 33.7079 178.964 32.3049C178.558 30.9019 178.717 29.4782 179.442 28.0337C180.288 26.3461 181.617 25.2137 183.428 24.6365C185.261 24.0521 186.999 24.1725 188.644 24.9975C189.187 25.2701 189.663 25.6428 190.07 26.1156C190.484 26.574 190.799 27.0896 191.012 27.6624L193.444 22.8141C193.624 22.4566 193.753 22.1634 193.832 21.9345C193.918 21.6914 193.965 21.4911 193.972 21.3337C193.987 21.1262 193.926 20.9615 193.79 20.8397C193.655 20.7179 193.344 20.5887 192.857 20.4521C192.764 20.4233 192.732 20.3804 192.761 20.3232C192.797 20.2517 192.861 20.2303 192.954 20.259C193.548 20.4315 194.045 20.5288 194.446 20.5508C194.861 20.5799 195.276 20.5375 195.691 20.4236C195.748 20.4165 195.809 20.4559 195.873 20.5419C195.959 20.6207 195.991 20.6816 195.969 20.7245L188.577 35.4622C187.981 36.6492 187.69 37.3715 187.704 37.6291C187.74 37.8796 188.015 38.134 188.53 38.3923C188.616 38.4353 188.641 38.4926 188.605 38.5641C188.576 38.6213 188.519 38.6284 188.433 38.5853C187.975 38.3558 187.607 38.18 187.328 38.058C187.042 37.9503 186.638 37.8281 186.116 37.6915C186.023 37.6627 185.962 37.6233 185.934 37.5732C185.905 37.5231 185.912 37.4551 185.955 37.3693C185.962 37.355 185.973 37.3335 185.988 37.3049C186.002 37.2763 186.034 37.2298 186.084 37.1655C186.335 36.7723 186.55 36.4148 186.73 36.093C186.923 35.7785 187.099 35.4638 187.257 35.1492L187.311 35.0419C186.287 35.5844 185.277 35.8836 184.283 35.9396C183.302 36.0027 182.369 35.8119 181.482 35.3671ZM187.613 25.0713C186.326 24.4256 185.078 24.3453 183.868 24.8303C182.672 25.3224 181.694 26.3265 180.934 27.8425C180.202 29.3012 179.978 30.7284 180.263 32.1241C180.554 33.5055 181.322 34.5082 182.566 35.1324C183.31 35.5054 184.104 35.6531 184.949 35.5755C185.807 35.5051 186.645 35.2271 187.461 34.7416L190.345 28.9924C190.103 28.0118 189.757 27.2028 189.307 26.5654C188.865 25.9136 188.3 25.4156 187.613 25.0713Z" fill="#121212"/>
<path d="M205.215 45.5836C204.595 46.4188 203.759 46.8742 202.707 46.95C201.677 47.0224 200.667 46.6916 199.678 45.9574C199.356 45.719 199.056 45.4662 198.776 45.1988C198.5 44.9538 198.237 44.6895 197.99 44.406C197.742 44.1224 197.473 43.7734 197.183 43.3589C196.893 42.9444 196.712 42.6909 196.641 42.5984C196.599 42.5474 196.575 42.4996 196.568 42.4548C196.584 42.4067 196.621 42.3441 196.678 42.267C196.697 42.2413 196.721 42.2092 196.749 42.1707C196.778 42.1321 196.83 42.0615 196.907 41.9587C197.234 41.5442 197.57 41.1057 197.913 40.6431C198.278 40.1773 198.685 39.6424 199.134 39.0385C199.181 38.9742 199.231 38.9612 199.282 38.9993C199.334 39.0375 199.335 39.0887 199.288 39.1529C198.792 39.821 198.418 40.4598 198.165 41.0691C197.921 41.6655 197.814 42.2133 197.842 42.7123C197.838 43.2275 198.007 43.7515 198.349 44.2842C198.704 44.8264 199.196 45.3311 199.826 45.7983C200.674 46.4275 201.456 46.7292 202.173 46.7031C202.912 46.6737 203.524 46.3314 204.011 45.6761C204.278 45.3164 204.416 44.9413 204.427 44.5508C204.46 44.157 204.367 43.7191 204.147 43.237C204.031 42.9912 203.877 42.728 203.687 42.4473C203.519 42.1634 203.198 41.6962 202.725 41.0458C201.681 39.6335 201.09 38.5773 200.952 37.8772C200.814 37.1771 200.969 36.5251 201.417 35.9212C202.027 35.0989 202.847 34.6915 203.878 34.6991C204.918 34.6938 205.939 35.063 206.941 35.8067C207.378 36.1309 207.768 36.4505 208.112 36.7655C208.466 37.0677 209.026 37.6425 209.792 38.4898C209.834 38.5408 209.851 38.5839 209.845 38.6191C209.861 38.651 209.85 38.6927 209.812 38.7441C209.736 38.8469 209.615 38.9963 209.45 39.1923C209.297 39.3979 209.028 39.7465 208.644 40.2381C208.24 40.7553 207.946 41.1248 207.761 41.3466C207.599 41.565 207.475 41.732 207.39 41.8477C207.332 41.9248 207.278 41.9442 207.227 41.9061C207.175 41.868 207.178 41.8103 207.235 41.7333C207.664 41.1551 207.987 40.627 208.202 40.1491C208.439 39.6679 208.563 39.2321 208.574 38.8416C208.604 38.3454 208.462 37.8518 208.149 37.3605C207.846 36.8565 207.392 36.3804 206.788 35.9323C205.966 35.322 205.169 34.9997 204.398 34.9652C203.636 34.9179 203.045 35.1769 202.626 35.7423C202.263 36.2305 202.151 36.7847 202.288 37.4048C202.426 38.0249 202.983 39.0061 203.959 40.3483C204.478 41.0721 204.836 41.5967 205.033 41.9221C205.243 42.257 205.401 42.5538 205.508 42.8125C205.725 43.3522 205.809 43.8429 205.76 44.2848C205.711 44.7267 205.53 45.1596 205.215 45.5836Z" fill="#121212"/>
<path d="M219.812 63.9941L219.697 63.8407C219.658 63.7896 219.636 63.7464 219.629 63.7112C219.62 63.6984 219.623 63.676 219.639 63.644L226.742 52.169C227.693 50.6121 228.24 49.5696 228.383 49.0413C228.535 48.5259 228.419 48.0125 228.034 47.5011L228.005 47.4628C227.919 47.3477 227.906 47.2774 227.967 47.2517C228.04 47.2163 228.106 47.237 228.164 47.3137C228.25 47.4288 228.345 47.5678 228.447 47.7308C228.573 47.897 228.754 48.1511 228.991 48.493C229.142 48.72 229.246 48.8718 229.304 48.9485C229.371 49.038 229.419 49.1019 229.448 49.1402C229.477 49.1786 229.53 49.2489 229.607 49.3512C229.694 49.4662 229.854 49.6659 230.088 49.9503C230.447 50.4009 230.704 50.7284 230.858 50.933C231.025 51.1279 231.151 51.2828 231.238 51.3979C231.296 51.4746 231.293 51.537 231.229 51.5851C231.187 51.6364 231.138 51.6237 231.08 51.547L230.705 51.0484C230.483 50.7544 230.275 50.5708 230.08 50.4975C229.907 50.4274 229.719 50.4582 229.518 50.5897C229.314 50.7437 228.946 51.2003 228.417 51.9597C227.909 52.7222 227.223 53.8194 226.358 55.2513L221.524 63.1559C221.508 63.1879 221.492 63.2199 221.476 63.252C221.483 63.2871 221.491 63.3111 221.501 63.3239C221.51 63.3367 221.526 63.3447 221.549 63.3478C221.593 63.3542 221.633 63.3541 221.669 63.3476L228.655 61.6937L231.057 57.5422C231.379 56.9592 231.626 56.5028 231.798 56.1729C231.993 55.8462 232.146 55.5707 232.258 55.3465C232.516 54.8116 232.648 54.4018 232.654 54.117C232.682 53.8353 232.538 53.4836 232.22 53.0617L232.105 52.9083C232.028 52.8061 232.015 52.7357 232.066 52.6972C232.139 52.6619 232.205 52.6826 232.263 52.7593C232.349 52.8743 232.449 53.0197 232.561 53.1955C232.696 53.3745 232.892 53.6478 233.148 54.0153C233.309 54.255 233.422 54.4196 233.49 54.5091C233.557 54.5986 233.605 54.6625 233.634 54.7008C233.663 54.7392 233.706 54.7967 233.764 54.8734C233.831 54.9629 233.949 55.1051 234.115 55.3C234.369 55.61 234.553 55.8416 234.668 55.995C234.806 56.1516 234.919 56.2874 235.005 56.4024C235.063 56.4791 235.06 56.5415 234.996 56.5896C234.945 56.6281 234.89 56.609 234.833 56.5323L234.717 56.3789C234.515 56.1105 234.337 55.954 234.184 55.9095C234.03 55.865 233.87 55.9052 233.704 56.0303C233.486 56.1939 233.228 56.4888 232.928 56.9149C232.637 57.3538 232.237 58.0057 231.726 58.8706L230.162 61.5806L233.174 60.7545C233.792 60.5902 234.337 60.41 234.81 60.214C235.293 60.0307 235.662 59.8429 235.918 59.6504C236.187 59.4483 236.338 59.2241 236.373 58.9776C236.417 58.7439 236.353 58.512 236.18 58.282C236.141 58.2308 236.096 58.1845 236.045 58.143C236.007 58.0919 235.942 58.02 235.853 57.9273C235.811 57.8986 235.781 57.8715 235.761 57.8459C235.752 57.8331 235.742 57.8203 235.732 57.8075C235.704 57.7692 235.686 57.7324 235.679 57.6972C235.683 57.6748 235.703 57.6492 235.742 57.6203C235.78 57.5915 235.815 57.585 235.847 57.6009C235.902 57.62 235.958 57.6679 236.016 57.7446C236.064 57.8086 236.136 57.9044 236.232 58.0323C236.328 58.1601 236.486 58.3822 236.704 58.6986C236.903 58.9895 237.045 59.1924 237.132 59.3075C237.219 59.4225 237.281 59.5056 237.32 59.5567C237.348 59.5951 237.397 59.659 237.464 59.7485C237.531 59.838 237.668 60.0057 237.873 60.2518C238.184 60.6384 238.402 60.9148 238.527 61.081C238.662 61.26 238.763 61.3942 238.83 61.4837C238.888 61.5604 238.88 61.6164 238.806 61.6517C238.755 61.6902 238.706 61.6775 238.658 61.6136L238.282 61.115C237.917 60.6293 237.403 60.3854 236.74 60.3834C236.091 60.3717 234.928 60.5962 233.252 61.0567L229.961 61.9122L225.783 69.1724C225.754 69.214 225.738 69.246 225.735 69.2684C225.732 69.2908 225.735 69.3084 225.745 69.3212C225.754 69.334 225.77 69.342 225.793 69.3451C225.838 69.3515 225.878 69.3514 225.913 69.3449L236.338 66.3937C237.243 66.1329 237.956 65.8964 238.478 65.6843C239.012 65.4626 239.419 65.2458 239.7 65.0341C240.033 64.784 240.22 64.5132 240.261 64.2219C240.302 63.9307 240.192 63.6125 239.933 63.2673C239.894 63.2162 239.844 63.1635 239.783 63.1092C239.745 63.0581 239.67 62.9846 239.557 62.8888C239.497 62.8345 239.457 62.7946 239.437 62.769C239.428 62.7562 239.418 62.7434 239.408 62.7307C239.38 62.6923 239.362 62.6555 239.355 62.6203C239.362 62.5755 239.384 62.5387 239.422 62.5098C239.461 62.481 239.501 62.4809 239.542 62.5096C239.597 62.5287 239.653 62.5766 239.711 62.6533C239.759 62.7172 239.836 62.8195 239.942 62.9601C240.057 63.1135 240.248 63.3804 240.514 63.7607C240.78 64.141 240.967 64.4015 241.072 64.5421C241.178 64.6827 241.25 64.7786 241.289 64.8297C241.318 64.8681 241.361 64.9256 241.419 65.0023C241.477 65.079 241.584 65.2084 241.741 65.3905C241.985 65.6877 242.16 65.9066 242.265 66.0472C242.381 66.2006 242.477 66.3284 242.554 66.4307C242.612 66.5074 242.604 66.5634 242.53 66.5987C242.479 66.6372 242.43 66.6245 242.382 66.5606L242.338 66.5031C241.973 66.0173 241.382 65.7912 240.566 65.8246C239.763 65.8484 238.379 66.1389 236.415 66.696L224.455 70.0819C224.42 70.0884 224.393 70.0788 224.373 70.0532C224.351 70.0501 224.325 70.0293 224.296 69.991L224.152 69.7992C224.123 69.7609 224.106 69.7241 224.099 69.6889C224.089 69.6761 224.093 69.6537 224.109 69.6217L228.449 62.0588L219.956 64.0658C219.921 64.0723 219.899 64.0692 219.889 64.0564C219.867 64.0532 219.841 64.0325 219.812 63.9941Z" fill="#121212"/>
<path d="M240.259 90.1181C239.343 90.0984 238.256 89.7867 236.998 89.183C235.755 88.5728 234.961 87.8717 234.616 87.0797C234.245 86.2289 234.176 85.4299 234.409 84.6827C234.656 83.9291 235.14 83.3957 235.858 83.0825C236.694 82.7181 237.636 82.7965 238.683 83.3175C239.745 83.8321 241 84.8298 242.449 86.3105L244.529 88.4409C245.742 87.86 246.523 87.2491 246.872 86.6083C247.227 85.9822 247.204 85.2071 246.801 84.283C246.667 83.975 246.506 83.705 246.317 83.4729C246.129 83.2408 245.9 83.0174 245.632 82.8026C245.39 82.6465 245.114 82.5138 244.804 82.4043C244.516 82.3031 243.99 82.218 243.227 82.1491C242.949 82.113 242.745 82.0449 242.614 81.9448C242.484 81.8448 242.367 81.6774 242.265 81.4427C242.169 81.2227 242.132 81.0381 242.154 80.8887C242.191 80.7331 242.276 80.6264 242.408 80.5689C242.54 80.5114 242.712 80.5062 242.924 80.5532C243.137 80.6002 243.379 80.6954 243.651 80.8387C244.34 81.219 245.011 81.7381 245.665 82.3959C246.318 83.0538 246.788 83.7127 247.076 84.3728C247.593 85.5609 247.663 86.6214 247.284 87.5544C246.92 88.481 246.129 89.2096 244.912 89.7401C244.589 89.8807 244.212 90.0364 243.78 90.2071C243.348 90.3778 242.679 90.6434 241.771 91.004C241.019 91.2795 240.485 91.4771 240.171 91.5967C239.863 91.7309 239.606 91.8427 239.401 91.9322C238.843 92.1751 238.455 92.4054 238.236 92.6231C238.037 92.8491 237.986 93.0721 238.082 93.2922C238.172 93.4975 238.416 93.6788 238.817 93.8361C239.238 94.0016 239.635 94.0727 240.009 94.0494C240.131 94.0487 240.182 94.1051 240.161 94.2187C240.147 94.3469 240.076 94.4041 239.948 94.3902C239.41 94.2758 238.837 94.0628 238.23 93.7514C237.638 93.4335 237.271 93.1132 237.13 92.7906C236.958 92.3945 236.959 92.0363 237.133 91.7159C237.314 91.4102 237.661 91.1455 238.175 90.9217C238.454 90.8003 238.801 90.6574 239.219 90.4931C239.636 90.3288 239.983 90.2038 240.259 90.1181ZM236.914 84.0625C236.254 84.3501 235.806 84.8245 235.57 85.4856C235.341 86.1614 235.383 86.8586 235.697 87.5774C235.844 87.9147 236.103 88.2293 236.474 88.5212C236.846 88.8131 237.312 89.0813 237.872 89.3258C238.384 89.5391 238.92 89.7071 239.479 89.8298C240.039 89.9524 240.441 89.9952 240.687 89.9579C241.066 89.8275 241.593 89.6331 242.265 89.3748C242.953 89.1101 243.553 88.866 244.067 88.6422L244.375 88.508L242.219 86.3844C240.938 85.1274 239.916 84.3426 239.151 84.03C238.408 83.7257 237.662 83.7365 236.914 84.0625Z" fill="#121212"/>
<path d="M240.969 102.46C240.852 102.111 240.767 101.844 240.714 101.66C240.666 101.491 240.621 101.337 240.582 101.198C240.555 101.106 240.573 101.051 240.634 101.034C240.711 101.011 240.763 101.046 240.789 101.139C240.957 101.723 241.19 102.039 241.486 102.087C241.788 102.15 242.523 102.014 243.691 101.678L249.204 100.093C249.604 99.978 249.985 99.7686 250.347 99.4647C250.709 99.1608 250.981 98.8329 251.163 98.481C251.185 98.4414 251.203 98.4194 251.219 98.4149C251.249 98.4061 251.277 98.4148 251.301 98.4412C251.499 98.6672 251.686 98.8548 251.862 99.004C252.043 99.1685 252.212 99.2946 252.371 99.3823C252.41 99.4042 252.425 99.425 252.414 99.4448C252.418 99.4602 252.409 99.4877 252.387 99.5273C252.219 99.8089 251.949 100.086 251.578 100.359C251.227 100.643 250.842 100.87 250.425 101.04C250.832 101.007 251.217 101.046 251.583 101.157C251.948 101.269 252.321 101.469 252.704 101.759C252.971 101.932 253.192 102.151 253.368 102.417C253.56 102.678 253.702 102.97 253.795 103.293C253.883 103.601 253.919 103.84 253.901 104.012C253.9 104.179 253.845 104.278 253.737 104.308C253.506 104.375 253.262 104.337 253.005 104.194C252.768 104.063 252.611 103.866 252.536 103.605C252.509 103.513 252.483 103.42 252.456 103.328C252.434 103.251 252.409 103.134 252.38 102.976C252.353 102.883 252.336 102.822 252.327 102.791C252.318 102.76 252.309 102.73 252.3 102.699C252.185 102.299 252.056 101.995 251.913 101.786C251.79 101.589 251.624 101.445 251.415 101.355C251.186 101.255 250.881 101.209 250.501 101.218C250.141 101.239 249.707 101.322 249.2 101.468L241.519 103.676L241.917 105.06C241.943 105.152 241.918 105.209 241.841 105.231C241.78 105.249 241.735 105.212 241.709 105.12C241.7 105.089 241.682 105.027 241.656 104.935C241.634 104.858 241.591 104.679 241.526 104.398C241.407 103.983 241.321 103.683 241.268 103.498C241.235 103.325 241.207 103.2 241.185 103.123C241.172 103.077 241.152 103.007 241.125 102.915C241.099 102.823 241.047 102.671 240.969 102.46Z" fill="#121212"/>
<path d="M245.799 120.464C245.352 119.964 244.989 119.428 244.709 118.855C244.447 118.296 244.269 117.7 244.174 117.067C243.902 115.247 244.206 113.705 245.084 112.441C245.981 111.191 247.284 110.438 248.993 110.182C250.781 109.915 252.429 110.332 253.937 111.433C255.446 112.55 256.33 113.971 256.588 115.696C256.785 117.009 256.638 118.083 256.148 118.916C255.658 119.75 254.997 120.205 254.168 120.28C253.865 120.309 253.618 120.233 253.429 120.051C253.259 119.882 253.144 119.6 253.085 119.204L251.885 111.182C251.554 111.134 251.211 111.112 250.856 111.117C250.503 111.137 250.137 111.176 249.757 111.233C248.238 111.46 247.043 112.181 246.173 113.395C245.322 114.622 245.02 116.067 245.268 117.728C245.479 119.136 246.072 120.293 247.049 121.199C248.028 122.12 249.417 122.81 251.217 123.269C251.353 123.314 251.409 123.362 251.384 123.414C251.376 123.464 251.312 123.473 251.195 123.443C250.07 123.174 249.042 122.786 248.108 122.278C247.191 121.768 246.421 121.163 245.799 120.464ZM254.289 118.66C254.891 118.57 255.37 118.207 255.728 117.572C256.102 116.933 256.22 116.155 256.083 115.237C255.917 114.13 255.483 113.224 254.779 112.52C254.091 111.814 253.192 111.374 252.082 111.201C252.262 112.403 252.482 113.77 252.743 115.3C253.007 116.846 253.141 117.635 253.146 117.666C253.19 117.854 253.25 118.039 253.326 118.222C253.42 118.418 253.494 118.536 253.549 118.577C253.637 118.628 253.739 118.662 253.855 118.677C253.986 118.689 254.131 118.684 254.289 118.66Z" fill="#121212"/>
<path d="M245.846 130.684C245.821 130.348 245.805 130.093 245.8 129.917C245.795 129.741 245.79 129.581 245.786 129.437C245.783 129.341 245.813 129.292 245.877 129.29C245.957 129.288 245.999 129.335 246.002 129.43C246.016 129.91 246.152 130.202 246.412 130.307C246.671 130.427 247.425 130.469 248.672 130.432L262.418 130.026C263.186 130.004 263.671 129.909 263.875 129.743C264.094 129.577 264.129 129.144 263.98 128.444C263.961 128.348 263.984 128.3 264.048 128.298C264.128 128.295 264.177 128.342 264.196 128.437C264.326 129.026 264.476 129.51 264.647 129.889C264.819 130.284 265.029 130.622 265.277 130.902C265.326 130.933 265.336 130.997 265.307 131.094C265.294 131.206 265.256 131.263 265.192 131.265L248.711 131.752C247.4 131.79 246.634 131.885 246.415 132.035C246.195 132.186 246.094 132.557 246.111 133.149C246.114 133.245 246.076 133.294 245.996 133.296C245.932 133.298 245.898 133.251 245.895 133.155C245.891 133.011 245.886 132.851 245.881 132.675C245.877 132.516 245.877 132.275 245.884 131.955C245.894 131.763 245.898 131.619 245.895 131.523C245.893 131.443 245.891 131.379 245.89 131.331C245.888 131.283 245.886 131.211 245.883 131.115C245.881 131.035 245.869 130.891 245.846 130.684Z" fill="#121212"/>
<path d="M241.504 137.36C241.557 136.786 241.697 136.325 241.922 135.976C242.133 135.61 242.358 135.439 242.597 135.461C242.804 135.48 243.001 135.611 243.187 135.853C243.357 136.094 243.429 136.358 243.403 136.645C243.389 136.788 243.352 136.929 243.291 137.068C243.23 137.207 243.099 137.404 242.898 137.658C242.679 137.943 242.537 138.171 242.473 138.342C242.393 138.511 242.345 138.683 242.329 138.859C242.268 139.512 242.483 140.134 242.974 140.727C243.465 141.319 244.246 141.914 245.315 142.511L245.888 142.83L254.653 139.814C256.199 139.267 257.136 138.864 257.465 138.605C257.809 138.364 258.002 137.932 258.044 137.309C258.051 137.23 258.087 137.193 258.151 137.199C258.23 137.206 258.266 137.25 258.259 137.329C258.256 137.361 258.249 137.433 258.239 137.544C258.229 137.656 258.2 137.878 258.153 138.211C258.089 138.72 258.049 139.069 258.031 139.261C258.012 139.468 257.998 139.611 257.991 139.691C257.986 139.739 257.98 139.81 257.971 139.906C257.962 140.001 257.954 140.177 257.946 140.434C257.926 140.818 257.907 141.105 257.89 141.296C257.872 141.487 257.857 141.647 257.845 141.774C257.836 141.87 257.792 141.914 257.712 141.906C257.649 141.9 257.621 141.85 257.63 141.754C257.672 141.308 257.661 140.994 257.597 140.811C257.548 140.646 257.429 140.546 257.239 140.513C257.082 140.482 256.872 140.486 256.611 140.526C256.349 140.582 255.903 140.717 255.272 140.932L247.4 143.67L254.204 147.485C255.12 148.004 255.828 148.167 256.328 147.972C256.826 147.794 257.117 147.266 257.198 146.39C257.207 146.294 257.243 146.25 257.307 146.256C257.387 146.263 257.422 146.315 257.413 146.41C257.4 146.553 257.376 146.72 257.343 146.91C257.323 147.117 257.294 147.435 257.254 147.866C257.212 148.135 257.187 148.317 257.179 148.413C257.168 148.524 257.161 148.604 257.156 148.652C257.149 148.732 257.137 148.859 257.121 149.034C257.103 149.225 257.08 149.553 257.053 150.016C257.041 150.32 257.03 150.52 257.022 150.616C257.013 150.711 257.007 150.775 257.004 150.807C256.996 150.887 256.953 150.923 256.873 150.915C256.809 150.909 256.781 150.867 256.789 150.787C256.854 150.263 256.675 149.764 256.253 149.291C255.847 148.819 255.109 148.285 254.04 147.687L245.245 142.746C243.824 141.955 242.824 141.13 242.245 140.273C241.649 139.43 241.402 138.459 241.504 137.36Z" fill="#121212"/>
</svg>
