<svg width="134" height="28" viewBox="0 0 134 28" fill="none" xmlns="http://www.w3.org/2000/svg">
<path d="M10.1004 25.1504H9.06006V24.6465H11.7245V25.1504H10.6842V27.8532H10.1004V25.1504V25.1504Z" fill="white"/>
<path d="M13.5596 26.2507C13.5596 25.304 14.2781 24.6016 15.2511 24.6016C16.224 24.6016 16.9425 25.2964 16.9425 26.2507C16.9425 27.2051 16.224 27.8999 15.2511 27.8999C14.2856 27.8999 13.5596 27.1975 13.5596 26.2507ZM16.3588 26.2507C16.3588 25.5941 15.8872 25.1207 15.2511 25.1207C14.6149 25.1207 14.1434 25.5941 14.1434 26.2507C14.1434 26.9073 14.6149 27.3807 15.2511 27.3807C15.8872 27.3807 16.3588 26.9073 16.3588 26.2507Z" fill="white"/>
<path d="M23.1428 24.6484H24.52C25.5379 24.6484 26.2339 25.2898 26.2339 26.2518C26.2339 27.2138 25.5379 27.8552 24.52 27.8552H23.1428V24.6484ZM24.49 27.3512C25.1936 27.3512 25.6426 26.916 25.6426 26.2518C25.6426 25.5875 25.1861 25.1524 24.49 25.1524H23.7266V27.3512H24.49V27.3512Z" fill="white"/>
<path d="M28.521 24.6484H29.1048V27.8552H28.521V24.6484Z" fill="white"/>
<path d="M33.7659 26.2163H34.3197V27.4913C33.9904 27.7586 33.5339 27.896 33.0848 27.896C32.1118 27.896 31.3933 27.2012 31.3933 26.2468C31.3933 25.2924 32.1118 24.5977 33.0923 24.5977C33.6162 24.5977 34.0578 24.7733 34.3571 25.1168L33.9904 25.4833C33.7434 25.2314 33.459 25.1168 33.1222 25.1168C32.4561 25.1168 31.9846 25.5826 31.9846 26.2468C31.9846 26.8958 32.4561 27.3768 33.1222 27.3768C33.3467 27.3768 33.5638 27.331 33.7659 27.2088V26.2163V26.2163Z" fill="white"/>
<path d="M36.7498 24.6484H37.3335V27.8552H36.7498V24.6484Z" fill="white"/>
<path d="M40.4842 25.1524H39.4438V24.6484H42.1083V25.1524H41.068V27.8552H40.4842V25.1524V25.1524Z" fill="white"/>
<path d="M46.0987 27.1146H44.527L44.2201 27.8552H43.6213L45.0359 24.6484H45.6122L47.0343 27.8552H46.4205L46.0987 27.1146ZM45.9041 26.6488L45.3128 25.244L44.7216 26.6488H45.9041Z" fill="white"/>
<path d="M49.0869 24.6484H49.6707V27.3512H51.3173V27.8552H49.0869V24.6484Z" fill="white"/>
<path d="M53.4446 24.6484H54.0284V27.8552H53.4446V24.6484Z" fill="white"/>
<path d="M56.2781 27.5182L56.4802 27.0524C56.7346 27.2586 57.1313 27.4036 57.5205 27.4036C58.007 27.4036 58.2166 27.228 58.2166 26.9837C58.2166 26.2889 56.3454 26.747 56.3454 25.5559C56.3454 25.0368 56.7496 24.6016 57.6103 24.6016C57.9845 24.6016 58.3812 24.7008 58.6581 24.8841L58.471 25.3498C58.1866 25.1818 57.8798 25.0978 57.6028 25.0978C57.1163 25.0978 56.9217 25.2887 56.9217 25.533C56.9217 26.2126 58.7854 25.7697 58.7854 26.9455C58.7854 27.4571 58.3737 27.8999 57.513 27.8999C57.0265 27.8999 56.54 27.7472 56.2781 27.5182Z" fill="white"/>
<path d="M63.3896 27.3589V27.8552H61.032V24.6484H63.3297V25.1447H61.6158V25.9846H63.1351V26.4732H61.6158V27.3589H63.3896Z" fill="white"/>
<path d="M78.0689 25.1524H77.0286V24.6484H79.693V25.1524H78.6527V27.8552H78.0689V25.1524V25.1524Z" fill="white"/>
<path d="M81.5383 26.2507C81.5383 25.304 82.2568 24.6016 83.2298 24.6016C84.2028 24.6016 84.9213 25.2964 84.9213 26.2507C84.9213 27.2051 84.2028 27.8999 83.2298 27.8999C82.2568 27.8999 81.5383 27.1975 81.5383 26.2507ZM84.3375 26.2507C84.3375 25.5941 83.866 25.1207 83.2298 25.1207C82.5936 25.1207 82.1221 25.5941 82.1221 26.2507C82.1221 26.9073 82.5936 27.3807 83.2298 27.3807C83.866 27.3807 84.3375 26.9073 84.3375 26.2507Z" fill="white"/>
<path d="M90.8586 27.5182L91.0607 27.0524C91.3152 27.2586 91.7119 27.4036 92.1011 27.4036C92.5876 27.4036 92.7971 27.228 92.7971 26.9837C92.7971 26.2889 90.926 26.747 90.926 25.5559C90.926 25.0368 91.3302 24.6016 92.1909 24.6016C92.5651 24.6016 92.9618 24.7008 93.2387 24.8841L93.0516 25.3498C92.7672 25.1818 92.4603 25.0978 92.1834 25.0978C91.6969 25.0978 91.5023 25.2887 91.5023 25.533C91.5023 26.2126 93.366 25.7697 93.366 26.9455C93.366 27.4571 92.9543 27.8999 92.0936 27.8999C91.6071 27.8999 91.1206 27.7472 90.8586 27.5182Z" fill="white"/>
<path d="M95.6108 24.6484H96.1946V27.8552H95.6108V24.6484Z" fill="white"/>
<path d="M101.597 27.8589L101.59 25.7287L100.557 27.4848H100.295L99.2619 25.7516V27.8513H98.708V24.6445H99.187L100.437 26.7747L101.664 24.6445H102.143L102.151 27.8513H101.597V27.8589Z" fill="white"/>
<path d="M107.301 25.7898C107.301 26.4922 106.792 26.9274 105.961 26.9274H105.25V27.8513H104.666V24.6445H105.961C106.784 24.6522 107.301 25.0797 107.301 25.7898ZM106.709 25.7898C106.709 25.3851 106.447 25.1561 105.931 25.1561H105.25V26.4311H105.931C106.447 26.4311 106.709 26.1944 106.709 25.7898Z" fill="white"/>
<path d="M109.547 24.6484H110.131V27.3512H111.777V27.8552H109.547V24.6484Z" fill="white"/>
<path d="M113.905 24.6484H114.489V27.8552H113.905V24.6484Z" fill="white"/>
<path d="M117.584 25.1447V26.122H119.104V26.6259H117.584V27.8552H117V24.6484H119.298V25.1447H117.584V25.1447Z" fill="white"/>
<path d="M122.881 26.7252V27.8552H122.298V26.7328L121.063 24.6484H121.684L122.605 26.2136L123.533 24.6484H124.109L122.881 26.7252Z" fill="white"/>
<path d="M69.9959 27.3583C70.463 27.3583 70.8416 26.9721 70.8416 26.4956C70.8416 26.0191 70.463 25.6328 69.9959 25.6328C69.5288 25.6328 69.1501 26.0191 69.1501 26.4956C69.1501 26.9721 69.5288 27.3583 69.9959 27.3583Z" fill="white"/>
<path d="M74.2389 17.8914L74.5084 18.3266C75.3915 19.7772 74.2389 21.2432 72.5699 21.2432H72.4352C71.7017 21.2432 71.0131 20.8538 70.6239 20.2201L68.8202 17.6165L66.4177 13.9441L66.3129 13.7608C65.527 12.6767 65.8489 12.9057 64.2322 12.9057L59.749 12.9057V21.2355H55.2659V0.193359L68.4684 0.193359C70.3321 0.193359 72.0161 0.827068 73.236 1.85016C74.456 2.87326 75.2119 4.28574 75.2119 5.85093C75.2119 8.13381 74.7928 11.0657 72.4576 11.9742C71.8514 12.2186 71.2003 12.3636 70.5192 12.4247L74.2389 17.8914ZM68.4609 8.74461C68.7828 8.74461 69.1046 8.68353 69.3965 8.56137C70.2198 8.2636 70.7587 7.38557 70.7587 6.27849C70.7587 5.28593 70.3246 4.83547 70.0776 4.62169C69.7932 4.37736 69.2543 4.0796 68.4609 4.0796L59.749 4.0796V8.76751L68.4609 8.74461Z" fill="white"/>
<path d="M82.038 5.87561V7.83018L91.0344 7.83018C92.0522 7.83018 92.8755 8.67004 92.8755 9.7084C92.8755 10.7468 92.0522 11.5866 91.0344 11.5866L82.038 11.5866V15.5568C82.038 16.6105 83.0784 17.4809 84.3358 17.4809L96.034 17.4809V21.2373L84.3358 21.2373C80.6085 21.2373 77.5923 18.6796 77.5923 15.5492V5.87561C77.5923 2.74524 80.601 0.1875 84.3358 0.1875L96.034 0.1875V3.94394L84.3358 3.94394C83.0784 3.95158 82.038 4.82197 82.038 5.87561Z" fill="white"/>
<path d="M109.003 21.2327H109.078L109.003 21.2938V21.2327ZM134.001 0.236328L124.324 10.7498L123.785 11.3224V19.1407C123.785 20.2783 122.879 21.2098 121.757 21.2098H121.345C120.23 21.2098 119.317 20.286 119.317 19.1407V11.3759L118.711 10.7498L109.041 0.236328L114.684 0.236328L121.54 7.69577L128.395 0.236328L134.001 0.236328V0.236328ZM133.964 21.2327H134.001V21.2938L133.964 21.2327Z" fill="white"/>
<path d="M52.7162 21.243L43.6376 1.94161H43.6301C43.1586 0.872702 41.8563 0.101563 40.09 0.101563C38.1814 0.101563 37.0288 0.872702 36.5498 1.94161H36.5423L27.4712 21.243H32.5831L40.0376 5.38501C40.0526 5.38501 40.075 5.38501 40.09 5.38501C40.1124 5.38501 40.1274 5.38501 40.1499 5.38501L47.6044 21.243H52.7162Z" fill="white"/>
<path d="M19.0229 5.4739C18.993 5.40519 18.963 5.33647 18.9331 5.27539H18.9406L19.0229 5.4739Z" fill="white"/>
<path d="M32.7445 0.148438L23.5685 21.2059H20.3203L16.3685 11.5018L12.4167 21.2059L9.16846 21.2059L0 0.148438L5.47114 0.148438L11.0471 12.4027L13.6067 5.76783L13.7789 5.325C13.7864 5.30973 13.7938 5.29446 13.8013 5.27919C14.4001 4.00414 15.418 3.75218 16.3835 3.75218C17.319 3.75218 18.2845 3.89725 18.9432 5.27919C18.9731 5.34027 19.003 5.40898 19.033 5.4777C19.033 5.48534 19.0404 5.49297 19.0404 5.50061L19.0928 5.6304L21.8097 12.4638L27.2733 0.148438L32.7445 0.148438V0.148438Z" fill="white"/>
<path d="M13.7941 5.27539C13.7861 5.29112 13.7781 5.30685 13.77 5.32259L13.7941 5.27539Z" fill="white"/>
<path d="M13.6062 5.7651C13.6586 5.60476 13.711 5.4597 13.7783 5.32227L13.6062 5.7651Z" fill="white"/>
<path d="M115.944 17.3484V21.3797L107.187 21.3797C105.93 21.3797 104.747 21.1354 103.669 20.6849C102.09 20.0207 100.803 18.9365 100.047 17.6156C99.508 16.7147 99.2236 15.7222 99.2236 14.6685V2.56697C99.2236 1.33009 100.212 0.322266 101.424 0.322266H101.506C102.719 0.322266 103.707 1.33009 103.707 2.56697V14.7601C103.737 16.3635 105.024 17.3026 106.753 17.3179L115.944 17.3484Z" fill="white"/>
<path d="M40.087 18.7305C41.4056 18.7305 42.4745 17.6401 42.4745 16.295C42.4745 14.9498 41.4056 13.8594 40.087 13.8594C38.7684 13.8594 37.6995 14.9498 37.6995 16.295C37.6995 17.6401 38.7684 18.7305 40.087 18.7305Z" fill="white"/>
</svg>
